# xmcd CD database file
#
# Track frame offsets:
#	150
#	7611
#	17567
#	29146
#	36794
#	48307
#	59338
#	68928
#	83441
#	91501
#	98811
#	107593
#	110604
#	113826
#	117109
#	122131
#	126795
#	130638
#	137073
#	139963
#	144583
#	150899
#	158754
#	162791
#	166439
#	169787
#	173456
#	180634
#	184259
#	187731
#	188883
#	191036
#	192666
#	195762
#	199082
#	202292
#	204293
#	206090
#	207867
#	210022
#	211583
#	213928
#	218245
#	223857
#	227613
#	240183
#	249173
#	262493
#	273785
#	280884
#
# Disc length: 3831 seconds
#
# Revision: 2
# Processed by: cddbd v1.5.2PL0 Copyright (c) Steve Scherf et al.
# Submitted via: CDex 1.51
#
DISCID=be0ef532
DTITLE=Erik Satie - Pièces pour piano  [CD 2-2]
DYEAR=1900
DGENRE=Piano
TTITLE0=Valse-ballet, Op.62  . . . . . .  { Eve Egoyan, piano }
TTITLE1=Quatre ogives - I
TTITLE2=Quatre ogives - II
TTITLE3=Quatre ogives - III
TTITLE4=Quatre ogives - IV
TTITLE5=Pièce froide - danse de travers I
TTITLE6=Pièce froide - danse de travers II
TTITLE7=Pièce froide - danse de travers III
TTITLE8=Petite ouverture à danser
TTITLE9=Le Picadilly
TTITLE10=Deux choses - I
TTITLE11=Deux choses - II
TTITLE12=Préludes flasques (pour un chien) - I
TTITLE13=Préludes flasques (pour un chien) - II
TTITLE14=Préludes flasques (pour un chien) - III
TTITLE15=Préludes flasques (pour un chien) - IV
TTITLE16=Véritables préludes flasques (pour un chien) - I
TTITLE17=Véritables préludes flasques (pour un chien) - II
TTITLE18=Véritables préludes flasques (pour un chien) - III
TTITLE19=San Bernardo
TTITLE20=Descriptions automatiques - I
TTITLE21=Descriptions automatiques - II
TTITLE22=Descriptions automatiques - III
TTITLE23=Menus propos enfantins - I
TTITLE24=Menus propos enfantins - II
TTITLE25=Menus propos enfantins - III
TTITLE26=Profondeur (bévues indiscretes, le Vizir autrichien)
TTITLE27=Sports et divertissement - I
TTITLE28=Sports et divertissement - II
TTITLE29=Sports et divertissement - III
TTITLE30=Sports et divertissement - IV
TTITLE31=Sports et divertissement - V
TTITLE32=Sports et divertissement - VI
TTITLE33=Sports et divertissement - VII
TTITLE34=Sports et divertissement - VIII
TTITLE35=Sports et divertissement - IX
TTITLE36=Sports et divertissement - X
TTITLE37=Sports et divertissement - XI
TTITLE38=Sports et divertissement - XII
TTITLE39=Sports et divertissement - XIII
TTITLE40=Sports et divertissement - XIV
TTITLE41=Avant-dernières pensées - I
TTITLE42=Avant-dernières pensées - II
TTITLE43=Avant-dernières pensées - III
TTITLE44=Six nocturnes - I
TTITLE45=Six nocturnes - II
TTITLE46=Six nocturnes - III
TTITLE47=Six nocturnes - IV
TTITLE48=Six nocturnes - V
TTITLE49=Six nocturnes - VI
EXTD=
EXTT0=
EXTT1=
EXTT2=
EXTT3=
EXTT4=
EXTT5=
EXTT6=
EXTT7=
EXTT8=
EXTT9=
EXTT10=
EXTT11=
EXTT12=
EXTT13=
EXTT14=
EXTT15=
EXTT16=
EXTT17=
EXTT18=
EXTT19=
EXTT20=
EXTT21=
EXTT22=
EXTT23=
EXTT24=
EXTT25=
EXTT26=
EXTT27=
EXTT28=
EXTT29=
EXTT30=
EXTT31=
EXTT32=
EXTT33=
EXTT34=
EXTT35=
EXTT36=
EXTT37=
EXTT38=
EXTT39=
EXTT40=
EXTT41=
EXTT42=
EXTT43=
EXTT44=
EXTT45=
EXTT46=
EXTT47=
EXTT48=
EXTT49=
PLAYORDER=
